<svg width="70" height="70" viewBox="0 0 70 70" fill="none" xmlns="http://www.w3.org/2000/svg">
<path d="M35 4.17371e-07C54.33 6.47878e-07 70 15.67 70 35C70 54.33 54.33 70 35 70C15.67 70 1.86863e-07 54.33 4.17371e-07 35C6.47878e-07 15.67 15.67 1.86863e-07 35 4.17371e-07Z" fill="#8FC7EA"/>
<path fill-rule="evenodd" clip-rule="evenodd" d="M47.0748 18.9002C48.2346 19.77 48.4697 21.4154 47.5998 22.5752L40.2498 32.3752C39.0832 33.9307 39.0832 36.0696 40.2498 37.6252L47.5998 47.4252C48.4697 48.585 48.2346 50.2303 47.0748 51.1002C45.915 51.97 44.2697 51.735 43.3998 50.5752L36.0498 40.7752C33.4832 37.3529 33.4832 32.6474 36.0498 29.2252L43.3998 19.4252C44.2697 18.2654 45.915 18.0303 47.0748 18.9002Z" fill="#3280B0"/>
<path fill-rule="evenodd" clip-rule="evenodd" d="M29.5748 18.9002C30.7346 19.77 30.9697 21.4154 30.0998 22.5752L22.7498 32.3752C21.5832 33.9307 21.5832 36.0696 22.7498 37.6252L30.0998 47.4252C30.9697 48.585 30.7346 50.2303 29.5748 51.1002C28.415 51.97 26.7697 51.735 25.8998 50.5752L18.5498 40.7752C15.9832 37.3529 15.9832 32.6474 18.5498 29.2252L25.8998 19.4252C26.7697 18.2654 28.415 18.0303 29.5748 18.9002Z" fill="#3280B0"/>
</svg>
