<svg width="68" height="66" viewBox="0 0 68 66" fill="none" xmlns="http://www.w3.org/2000/svg">
<g filter="url(#filter0_d_79_255)">
<path d="M10.365 43.6428C13.8803 43.6428 16.73 40.7931 16.73 37.2778C16.73 33.7625 13.8803 30.9128 10.365 30.9128C6.84971 30.9128 4 33.7625 4 37.2778C4 40.7931 6.84971 43.6428 10.365 43.6428Z" fill="#FFB8AE"/>
<path d="M57.635 43.6428C61.1503 43.6428 64 40.7931 64 37.2778C64 33.7625 61.1503 30.9128 57.635 30.9128C54.1197 30.9128 51.27 33.7625 51.27 37.2778C51.27 40.7931 54.1197 43.6428 57.635 43.6428Z" fill="#FFB8AE"/>
<path d="M12.1532 31.2164C11.9684 33.8121 12.0757 36.4204 12.4731 38.9922C13.2113 45.6689 16.402 51.4843 22.4635 54.7161C28.525 57.9478 36.8258 59.1125 43.2892 56.4467C45.7284 55.498 47.9494 54.0636 49.8176 52.2307C51.6858 50.3977 53.1622 48.2044 54.1573 45.7837C56.4129 40.1323 56.4375 32.9061 56.134 26.8117C55.0103 4.21434 36.6043 4.55064 36.6043 4.55064C36.6043 4.55064 12.0547 2.62311 12.1532 31.2164Z" fill="#FFB8AE"/>
<path d="M25.1784 35.7682C25.1784 37.015 24.6699 38.0239 24.0465 38.0239C23.4231 38.0239 22.9146 37.015 22.9146 35.7682C22.9146 34.5215 23.4231 33.5044 24.0465 33.5044C24.6699 33.5044 25.1784 34.5133 25.1784 35.7682Z" fill="#373C44"/>
<path d="M46.1108 36.1463C46.1108 37.393 45.6022 38.4101 44.9788 38.4101C44.3555 38.4101 43.8469 37.393 43.8469 36.1463C43.8469 34.8995 44.3555 33.8906 44.9788 33.8906C45.6022 33.8906 46.1108 34.8995 46.1108 36.1463Z" fill="#373C44"/>
<path d="M34.3485 37.2778C33.8974 37.5649 33.4544 37.8356 33.0361 38.0981C32.6178 38.3605 32.2159 38.7379 32.2159 39.0085C32.2159 39.1152 32.2651 39.2464 32.4537 39.4104C32.6106 39.5627 32.7979 39.6801 33.0033 39.7549C33.4798 39.8584 33.9778 39.77 34.3895 39.5089C34.2314 39.7526 34.0092 39.9481 33.7473 40.074C33.4855 40.1998 33.194 40.2512 32.9049 40.2225C32.6032 40.1758 32.3197 40.0483 32.0847 39.8534C31.9368 39.7542 31.8159 39.6198 31.7329 39.4623C31.6499 39.3048 31.6073 39.1291 31.6089 38.9511C31.6714 38.6202 31.8596 38.3263 32.1339 38.1309C32.3523 37.9562 32.5921 37.8101 32.8475 37.6962C33.3224 37.4779 33.8291 37.3367 34.3485 37.2778Z" fill="#373C44"/>
<path d="M31.2075 42.5765C31.6968 42.899 32.2159 43.1737 32.7577 43.3968C33.2755 43.627 33.832 43.7578 34.3982 43.7823C34.9456 43.8157 35.4927 43.7114 35.9894 43.4788C36.5162 43.2306 37.014 42.9253 37.4741 42.5684C37.3131 42.8281 37.1321 43.075 36.9327 43.3066C36.7211 43.5387 36.4782 43.7403 36.2109 43.9053C35.6659 44.2594 35.0227 44.4317 34.3736 44.3975C33.7419 44.3555 33.1283 44.1696 32.5795 43.854C32.0307 43.5384 31.5614 43.1014 31.2075 42.5765Z" fill="#373C44"/>
<path d="M24.457 42.6829C24.457 43.1533 24.3176 43.6132 24.0562 44.0044C23.7948 44.3956 23.4233 44.7004 22.9886 44.8805C22.554 45.0605 22.0757 45.1076 21.6143 45.0159C21.1529 44.9241 20.7291 44.6975 20.3964 44.3649C20.0638 44.0322 19.8372 43.6083 19.7454 43.1469C19.6536 42.6855 19.7007 42.2072 19.8808 41.7726C20.0608 41.338 20.3657 40.9665 20.7569 40.7051C21.1481 40.4437 21.6079 40.3042 22.0784 40.3042C22.7093 40.3042 23.3143 40.5548 23.7604 41.0009C24.2065 41.447 24.457 42.052 24.457 42.6829Z" fill="#FFB8AE"/>
<path d="M48.4728 42.2073C48.481 42.6802 48.348 43.1447 48.0909 43.5416C47.8338 43.9384 47.4642 44.2497 47.0294 44.4356C46.5946 44.6214 46.1142 44.6735 45.6497 44.585C45.1851 44.4966 44.7575 44.2717 44.4214 43.9391C44.0852 43.6064 43.8559 43.1812 43.7626 42.7176C43.6693 42.254 43.7163 41.7731 43.8976 41.3364C44.0788 40.8996 44.3862 40.5268 44.7804 40.2656C45.1746 40.0043 45.6377 39.8665 46.1105 39.8697C46.7315 39.8739 47.3262 40.1207 47.7676 40.5575C48.209 40.9944 48.4621 41.5865 48.4728 42.2073Z" fill="#FFB8AE"/>
<path d="M42.4937 29.9699C42.782 29.3797 43.2334 28.8844 43.7945 28.5427C44.3557 28.2011 45.003 28.0275 45.6597 28.0424C46.3223 28.0745 46.9646 28.281 47.5216 28.6412C47.7863 28.817 48.036 29.0146 48.2681 29.2317C48.4779 29.4629 48.6699 29.7097 48.8422 29.9699C48.5552 29.8469 48.2927 29.6911 48.022 29.5598C47.7513 29.4286 47.4889 29.3056 47.2018 29.2071C46.695 29.0022 46.1567 28.8857 45.6105 28.8626C45.067 28.8396 44.5246 28.9318 44.0193 29.1333C43.4795 29.3511 42.9674 29.6319 42.4937 29.9699Z" fill="#373C44"/>
<path d="M19.7974 29.9699C20.0857 29.3797 20.5372 28.8844 21.0983 28.5427C21.6594 28.2011 22.3067 28.0275 22.9635 28.0424C23.6261 28.0745 24.2683 28.281 24.8254 28.6412C25.0901 28.817 25.3398 29.0146 25.5718 29.2317C25.7792 29.465 25.971 29.7116 26.146 29.9699C25.8507 29.8469 25.5964 29.6911 25.3257 29.5598C25.055 29.4286 24.7926 29.3056 24.5055 29.2071C23.9987 29.0022 23.4604 28.8857 22.9142 28.8626C22.3707 28.8396 21.8284 28.9318 21.323 29.1333C20.7833 29.3511 20.2711 29.6319 19.7974 29.9699Z" fill="#373C44"/>
<path d="M12.1531 31.2164C12.1531 31.4953 15.2126 17.6416 19.1497 15.7305C17.3616 19.0688 16.689 19.5445 16.689 19.5445C16.689 19.5445 22.8079 18.8309 25.1374 14.6231C25.2977 15.3769 25.2789 16.1577 25.0822 16.9028C24.8856 17.6479 24.5168 18.3365 24.0054 18.913C24.0054 18.913 35.0786 24.6136 42.1818 17.1248C42.5314 17.7651 42.7146 18.4829 42.7146 19.2123C42.7146 19.9418 42.5314 20.6596 42.1818 21.2998C42.1818 21.2998 49.0226 21.2998 50.3841 16.887C53.1728 21.1555 55.1575 25.8978 56.2406 30.8801C56.2406 30.8801 59.0212 4.00932 35.4313 4.46045C11.2508 4.95259 12.4812 26.8856 12.1531 31.2164Z" fill="#373C44"/>
<path d="M37.4405 5.03459C37.4405 5.03459 36.1528 0.441304 37.7932 0.022986C39.4337 -0.395332 38.1214 5.03459 38.1214 5.03459C38.1214 5.03459 39.2697 0.359259 40.336 1.58961C41.4023 2.81996 39.6224 6.75708 37.4405 5.03459Z" fill="#373C44"/>
</g>
<defs>
<filter id="filter0_d_79_255" x="0" y="0" width="68" height="65.9233" filterUnits="userSpaceOnUse" color-interpolation-filters="sRGB">
<feFlood flood-opacity="0" result="BackgroundImageFix"/>
<feColorMatrix in="SourceAlpha" type="matrix" values="0 0 0 0 0 0 0 0 0 0 0 0 0 0 0 0 0 0 127 0" result="hardAlpha"/>
<feOffset dy="4"/>
<feGaussianBlur stdDeviation="2"/>
<feComposite in2="hardAlpha" operator="out"/>
<feColorMatrix type="matrix" values="0 0 0 0 0 0 0 0 0 0 0 0 0 0 0 0 0 0 0.25 0"/>
<feBlend mode="normal" in2="BackgroundImageFix" result="effect1_dropShadow_79_255"/>
<feBlend mode="normal" in="SourceGraphic" in2="effect1_dropShadow_79_255" result="shape"/>
</filter>
</defs>
</svg>
