<svg width="68" height="68" viewBox="0 0 68 68" fill="none" xmlns="http://www.w3.org/2000/svg">
<g filter="url(#filter0_d_79_250)">
<path d="M36.0979 1.44325C36.555 0.98571 37.0978 0.622747 37.6953 0.375105C38.2928 0.127463 38.9332 0 39.58 0C40.2268 0 40.8672 0.127463 41.4647 0.375105C42.0622 0.622747 42.605 0.98571 43.0621 1.44325L62.559 20.9386C63.4818 21.8639 64 23.1173 64 24.424C64 25.7308 63.4818 26.9842 62.559 27.9095L39.6608 50.7912C38.7357 51.7116 37.4838 52.2284 36.1787 52.2284C34.8736 52.2284 33.6217 51.7116 32.6966 50.7912L13.2144 31.2885C12.7568 30.8315 12.3938 30.2887 12.1461 29.6913C11.8985 29.0938 11.771 28.4534 11.771 27.8067C11.771 27.16 11.8985 26.5196 12.1461 25.9222C12.3938 25.3247 12.7568 24.7819 13.2144 24.3249L36.0979 1.44325Z" fill="#FFBC01"/>
<path d="M4.20808 55.4262C3.33388 58.7023 5.29532 60.6709 8.57174 59.7895L16.4249 57.6886L6.31644 47.5884L4.20808 55.4262Z" fill="#0F3654"/>
<path d="M6.31641 47.5737L16.4248 57.6813L37.3616 52.0693L11.9216 26.6313L6.31641 47.5737Z" fill="white"/>
</g>
<defs>
<filter id="filter0_d_79_250" x="0" y="0" width="68" height="68" filterUnits="userSpaceOnUse" color-interpolation-filters="sRGB">
<feFlood flood-opacity="0" result="BackgroundImageFix"/>
<feColorMatrix in="SourceAlpha" type="matrix" values="0 0 0 0 0 0 0 0 0 0 0 0 0 0 0 0 0 0 127 0" result="hardAlpha"/>
<feOffset dy="4"/>
<feGaussianBlur stdDeviation="2"/>
<feComposite in2="hardAlpha" operator="out"/>
<feColorMatrix type="matrix" values="0 0 0 0 0 0 0 0 0 0 0 0 0 0 0 0 0 0 0.25 0"/>
<feBlend mode="normal" in2="BackgroundImageFix" result="effect1_dropShadow_79_250"/>
<feBlend mode="normal" in="SourceGraphic" in2="effect1_dropShadow_79_250" result="shape"/>
</filter>
</defs>
</svg>
