<svg width="68" height="65" viewBox="0 0 68 65" fill="none" xmlns="http://www.w3.org/2000/svg">
<g filter="url(#filter0_d_79_270)">
<path d="M35.7006 26.786C35.7006 27.194 35.5386 27.5853 35.2501 27.8738C34.9616 28.1623 34.5703 28.3243 34.1623 28.3243C33.7543 28.3243 33.3631 28.1623 33.0746 27.8738C32.7861 27.5853 32.624 27.194 32.624 26.786V1.53835C32.624 1.13036 32.7861 0.739085 33.0746 0.450595C33.3631 0.162104 33.7543 0 34.1623 0C34.5703 0 34.9616 0.162104 35.2501 0.450595C35.5386 0.739085 35.7006 1.13036 35.7006 1.53835V26.786Z" fill="#0F3654"/>
<path d="M60.7691 30.4768C58.6996 23.2198 54.1881 15.2385 44.903 16.6043C40.9434 17.1838 38.1013 19.0325 33.9831 18.9635C29.8441 19.0325 27.0227 17.1838 23.0631 16.6043C13.7642 15.2247 9.2665 23.2198 7.19702 30.4768C5.47245 36.4438 3.37537 42.8109 4.17557 48.9573C4.64465 52.5858 8.0593 55.5382 11.9361 56.0418C15.813 56.5454 18.9379 55.0622 21.5937 52.6478C23.8012 50.6335 24.8084 50.1507 26.6364 47.819H41.378C43.2061 50.1438 44.2132 50.6266 46.4207 52.6478C49.0696 55.0622 52.2566 56.5316 56.0783 56.0418C59.8999 55.552 63.3766 52.5927 63.8457 48.9573C64.5907 42.8109 62.4868 36.4438 60.7691 30.4768Z" fill="white"/>
<path d="M28.5678 29.8081H24.8014V26.0485C24.8014 25.4996 24.5833 24.9732 24.1952 24.5851C23.8071 24.197 23.2807 23.979 22.7319 23.979H21.6144C21.0655 23.979 20.5391 24.197 20.151 24.5851C19.7629 24.9732 19.5449 25.4996 19.5449 26.0485V29.8081H15.7853C15.2364 29.8081 14.71 30.0261 14.3219 30.4142C13.9338 30.8023 13.7158 31.3287 13.7158 31.8775V32.9951C13.7158 33.5439 13.9338 34.0703 14.3219 34.4584C14.71 34.8465 15.2364 35.0645 15.7853 35.0645H19.5449V38.831C19.5449 39.3799 19.7629 39.9062 20.151 40.2943C20.5391 40.6824 21.0655 40.9005 21.6144 40.9005H22.7319C23.2807 40.9005 23.8071 40.6824 24.1952 40.2943C24.5833 39.9062 24.8014 39.3799 24.8014 38.831V35.0645H28.5678C29.1167 35.0645 29.6431 34.8465 30.0312 34.4584C30.4193 34.0703 30.6373 33.5439 30.6373 32.9951V31.8775C30.6373 31.3287 30.4193 30.8023 30.0312 30.4142C29.6431 30.0261 29.1167 29.8081 28.5678 29.8081Z" fill="#164F7A"/>
<path d="M44.5516 37.1752C44.5598 37.8673 44.3621 38.5462 43.9836 39.1256C43.6051 39.705 43.0628 40.1589 42.4258 40.4294C41.7888 40.7 41.0856 40.775 40.4058 40.645C39.726 40.5151 39.1002 40.1859 38.6079 39.6995C38.1156 39.213 37.779 38.5912 37.641 37.913C37.5029 37.2348 37.5696 36.5308 37.8325 35.8906C38.0954 35.2504 38.5427 34.7027 39.1176 34.3173C39.6925 33.9319 40.369 33.7261 41.0611 33.7261C41.9797 33.726 42.8613 34.0881 43.5147 34.7337C44.1682 35.3794 44.5407 36.2567 44.5516 37.1752Z" fill="#FF5C5C"/>
<path d="M56.2782 38.5889C56.2781 39.281 56.0723 39.9575 55.6869 40.5324C55.3015 41.1073 54.7539 41.5546 54.1137 41.8175C53.4734 42.0804 52.7695 42.1471 52.0913 42.009C51.4131 41.871 50.7913 41.5344 50.3048 41.0421C49.8183 40.5498 49.4892 39.924 49.3592 39.2442C49.2293 38.5644 49.3043 37.8613 49.5748 37.2243C49.8454 36.5872 50.2992 36.0449 50.8787 35.6664C51.4581 35.2879 52.137 35.0902 52.829 35.0984C53.2855 35.0984 53.7374 35.1889 54.1586 35.3649C54.5798 35.5408 54.9619 35.7986 55.2827 36.1232C55.6035 36.4479 55.8567 36.833 56.0276 37.2563C56.1985 37.6796 56.2837 38.1325 56.2782 38.5889Z" fill="#FF5C5C"/>
<path d="M48.0007 31.8149C49.9247 31.8149 51.4844 30.2552 51.4844 28.3313C51.4844 26.4073 49.9247 24.8477 48.0007 24.8477C46.0768 24.8477 44.5171 26.4073 44.5171 28.3313C44.5171 30.2552 46.0768 31.8149 48.0007 31.8149Z" fill="#FF5C5C"/>
</g>
<defs>
<filter id="filter0_d_79_270" x="0" y="0" width="68" height="64.1396" filterUnits="userSpaceOnUse" color-interpolation-filters="sRGB">
<feFlood flood-opacity="0" result="BackgroundImageFix"/>
<feColorMatrix in="SourceAlpha" type="matrix" values="0 0 0 0 0 0 0 0 0 0 0 0 0 0 0 0 0 0 127 0" result="hardAlpha"/>
<feOffset dy="4"/>
<feGaussianBlur stdDeviation="2"/>
<feComposite in2="hardAlpha" operator="out"/>
<feColorMatrix type="matrix" values="0 0 0 0 0 0 0 0 0 0 0 0 0 0 0 0 0 0 0.25 0"/>
<feBlend mode="normal" in2="BackgroundImageFix" result="effect1_dropShadow_79_270"/>
<feBlend mode="normal" in="SourceGraphic" in2="effect1_dropShadow_79_270" result="shape"/>
</filter>
</defs>
</svg>
