<svg width="1440" height="960" viewBox="0 0 1440 960" fill="none" xmlns="http://www.w3.org/2000/svg">
<g clip-path="url(#clip0_2_3)">
<rect width="1440" height="960" fill="#D4F0F2"/>
<path opacity="0.7" d="M-19.9897 -114H1068.73C1086.37 -54.58 1087.89 9.91 1069.56 72.5C1045.31 165.35 1057.61 262.02 1066.33 308.66C1068.94 317.96 1071.01 327.42 1072.48 337C1072.51 337.13 1072.54 337.22 1072.54 337.22H1072.51C1077.5 369.99 1075.71 404.08 1065.94 437.42C1033.03 549.8 921.59 614.04 809.05 590.44V590.49C808.42 590.34 807.79 590.2 807.16 590.06C805.78 589.76 804.4 589.44 803.02 589.11C706.6 568.18 620.56 608.81 576.64 635.88C566.86 643.74 556.55 650.89 545.83 657.33C477.87 698.1 392.52 709.55 309.34 681.57C236.02 656.91 177.65 606.08 141.53 542.96V542.93C134.96 531.47 129.12 519.6 124.07 507.41C84.2903 435.74 26.8702 384.33 -19.9998 351.09V-114H-19.9897Z" fill="#C0E3E7"/>
<circle cx="1268.65" cy="882" r="252" fill="#FFB8AE"/>
</g>
<defs>
<clipPath id="clip0_2_3">
<rect width="1440" height="960" fill="white"/>
</clipPath>
</defs>
</svg>
